<svg width="300" height="300" viewBox="0 0 300 300" fill="none" xmlns="http://www.w3.org/2000/svg">
<circle cx="150" cy="150" r="150" fill="#F5FFDE"/>
<mask id="mask0_1412_28208" style="mask-type:alpha" maskUnits="userSpaceOnUse" x="0" y="0" width="300" height="300">
<circle cx="150" cy="150" r="150" fill="#F7FEE7"/>
</mask>
<g mask="url(#mask0_1412_28208)">
<path d="M86.2741 -18.6456C106.113 -18.6456 123.268 -14.812 137.74 -7.14479C158.729 3.87677 171.571 23.1885 176.268 50.7903H147.947C144.497 35.3601 137.357 24.1469 126.527 17.1506C115.697 10.0584 102.04 6.51236 85.5553 6.51236C66.004 6.51236 49.5196 13.8441 36.102 28.5076C22.7803 43.171 16.1194 65.0225 16.1194 94.0619C16.1194 119.172 21.6302 139.634 32.6518 155.447C43.6733 171.165 61.6433 179.024 86.5616 179.024C105.634 179.024 121.399 173.513 133.858 162.491C146.413 151.374 152.835 133.452 153.122 108.725H86.9929V85.005H179.718V198H161.317L154.416 170.829C144.736 181.468 136.159 188.847 128.683 192.968C116.128 200.061 100.171 203.607 80.8112 203.607C55.7971 203.607 34.2811 195.508 16.2632 179.311C-3.38394 158.993 -13.2075 131.104 -13.2075 95.6432C-13.2075 60.2784 -3.62353 32.1495 15.5444 11.2564C33.7539 -8.67823 57.3305 -18.6456 86.2741 -18.6456Z" fill="black"/>
<path d="M148.616 173.005L175.15 124.851L187.925 133.696L181.537 192.168L148.616 173.005Z" fill="#F5FFDE"/>
<path d="M162.732 254.919C163.403 266.899 166.23 276.626 171.214 284.102C180.702 298.095 197.426 305.091 221.386 305.091C232.12 305.091 241.895 303.557 250.713 300.491C267.772 294.548 276.302 283.91 276.302 268.576C276.302 257.075 272.708 248.881 265.52 243.993C258.236 239.201 246.831 235.032 231.305 231.486L202.697 225.017C184.008 220.8 170.782 216.152 163.019 211.072C149.602 202.255 142.893 189.077 142.893 171.538C142.893 152.562 149.458 136.988 162.588 124.816C175.718 112.645 194.311 106.559 218.367 106.559C240.506 106.559 259.29 111.926 274.72 122.66C290.246 133.298 298.01 150.358 298.01 173.838H271.126C269.689 162.529 266.622 153.856 261.926 147.818C253.204 136.796 238.397 131.286 217.504 131.286C200.636 131.286 188.513 134.832 181.133 141.924C173.753 149.016 170.064 157.258 170.064 166.65C170.064 177.001 174.376 184.572 183.002 189.364C188.656 192.431 201.451 196.265 221.386 200.865L251 207.622C265.28 210.88 276.302 215.337 284.065 220.992C297.482 230.863 304.191 245.191 304.191 263.976C304.191 287.361 295.661 304.085 278.602 314.148C261.638 324.211 241.895 329.242 219.373 329.242C193.113 329.242 172.555 322.534 157.7 309.116C142.845 295.794 135.561 277.729 135.849 254.919H162.732Z" fill="black"/>
</g>
</svg>
